<?xml version="1.0" standalone="no"?>
<!DOCTYPE svg PUBLIC "-//W3C//DTD SVG 1.1//EN" "http://www.w3.org/Graphics/SVG/1.1/DTD/svg11.dtd" >
<svg xmlns="http://www.w3.org/2000/svg" xmlns:xlink="http://www.w3.org/1999/xlink" version="1.1">
<metadata></metadata>
<defs>
<font id="guthen_bloots_personal_useRg" horiz-adv-x="1001" >
<font-face units-per-em="2048" ascent="1638" descent="-410" />
<missing-glyph horiz-adv-x="468" />
<glyph unicode="&#xd;" horiz-adv-x="1040" />
<glyph horiz-adv-x="0" />
<glyph horiz-adv-x="0" />
<glyph unicode=" "  horiz-adv-x="468" />
<glyph unicode="&#x09;" horiz-adv-x="468" />
<glyph unicode="&#xa0;" horiz-adv-x="468" />
<glyph unicode="!" horiz-adv-x="657" d="M158 -158q0 184 104 185q115 -2 119 -70q0 -20 -4 -47q-31 -271 -111 -275h-6q-12 0 -29 9q-74 43 -73 198zM158 500q0 279 168 714q12 31 22 66q33 125 113 125q27 0 53 -10q66 -27 66 -84q0 -23 -11 -49q-217 -516 -229 -930q-2 -59 -35 -86q-22 -19 -45 -21 q-14 0 -41 8q-57 18 -61 267z" />
<glyph unicode="&#x22;" horiz-adv-x="856" d="M178 983q0 74 38 167t101 173q27 31 60 33q41 0 76.5 -22.5t38.5 -49.5q0 -41 -58 -149q-72 -119 -72 -207q0 -37 29 -123q0 -27 -31 -31l-30 2q-152 51 -152 207zM473 1028q0 162 168 256q20 10 43 12q45 0 80 -39q12 -16 14 -34q0 -39 -56 -118t-56 -140l10 -62 q0 -31 -43 -37q-14 0 -25 4q-125 55 -135 158z" />
<glyph unicode="#" horiz-adv-x="772" d="M-84 141q0 16 14 39q119 184 185 266q25 33 24 58q0 37 -47 80q-20 20 -20 32q0 6 9 16.5t23 10.5t46 -20q18 -12 26 -25q14 -18 25 -18q10 0 28 18q39 39 39 66q0 16 -12 38q-25 43 -51 113q-12 35 -12 51q0 25 28 25q14 0 29 -10q53 -39 69 -103q10 -31 23 -30 q12 0 86 94q18 23 39 22q20 0 48 -19.5t28 -43.5q0 -27 -117 -158q-20 -23 -20 -43q0 -18 20 -37q8 -8 16 -8q10 0 39 45q109 168 148 168q18 0 41.5 -16.5t23.5 -38.5q0 -16 -14 -37l-152 -209q-20 -27 -20 -55q0 -20 12 -43q41 -68 65.5 -126.5t24.5 -123.5 q0 -10 -3 -27.5t-29 -17.5q-16 0 -86 147l-50 88q-35 -35 -34 -67q0 -61 57 -111q35 -35 35 -55q0 -23 -51 -23q-18 0 -56 56q-25 35 -35 34q-18 0 -30 -47q-6 -18 -27 -18q-8 0 -16 4q-47 20 -47 65q0 31 18 60t18 53q0 27 -32 70q-10 14 -17.5 27.5t-15.5 13.5 q-12 0 -43 -47q-141 -203 -146 -211q-18 -35 -36 -35q-12 0 -27 10q-41 25 -41 53zM285 463q2 -29 14.5 -56.5t32.5 -29.5q20 0 37 16q10 8 10 31q0 14 -4 33q-14 72 -37 71q-6 0 -12 -6q-41 -31 -41 -59z" />
<glyph unicode="%" horiz-adv-x="958" d="M-6 811q0 41 10 70q111 266 170 387q31 63 88 63q45 0 96 -33q102 -61 129 -161q0 -160 -159 -357q-88 -108 -158 -108q-33 0 -68 18q-96 47 -108 121zM4 -434q0 37 5 121t93 323q184 498 635 1303q29 51 56 104q35 82 77 88q37 0 78 -28q29 -20 37 -60q0 -31 -24 -74 q-301 -512 -560 -1046q-160 -326 -243 -680q-6 -29 -6 -55q4 -37 22 -54q31 -25 43 -59q0 -12 -10 -29q-18 -26 -57 -30q-25 0 -50 8q-96 33 -96 168zM197 905q0 -4 4 -4t18 12q66 61 90 125q23 55 23 84q-6 25 -10 25q-6 -2 -15 -17q-53 -86 -86 -157q-25 -51 -24 -68z M514 -78l2 29q39 379 166 397l43 2l59 -2q135 -8 136 -174q0 -207 -148 -354q-37 -35 -90 -35q-68 0 -125 55q-39 37 -43 82zM698 37q8 0 27 31q35 57 47 135q0 25 -8 24q-29 -57 -57 -157q-9 -27 -9 -33z" />
<glyph unicode="&#x26;" horiz-adv-x="962" d="M-92 618q0 98 63 216q205 336 867 684q4 6 4 12q47 133 100 262q25 51 84 51q106 0 107 -69q0 -33 -50 -152q100 -16 172 -66q33 -25 33 -69q-4 -45 -51 -45l-47 2q-16 0 -31 -4l-65 -31q-57 -23 -86 -51q-57 -55 -267 -729q70 -70 70 -117q0 -33 -63 -68 q-86 -39 -93 -106q-63 -229 -67 -275q0 -12 6 -12q27 8 49 8q82 0 127 -104q8 -18 8 -33q0 -43 -69 -49q-20 -4 -37 -12q-41 -18 -71 -23.5t-48 -18t-27 -52.5q-43 -256 -43 -410q0 -35 5.5 -50.5t5.5 -33.5q0 -29 -25 -43t-41 -14q-23 0 -70 14q-47 25 -47 162 q0 201 41 364l6 35q0 14 -28 14q-172 10 -248 162q-18 41 -19 76q0 80 123 190q33 35 33 58q0 25 -59 45q-252 98 -252 282zM127 551q0 -49 74 -49l28 2q139 29 258 94q18 12 33 16q20 12 35.5 22.5t34.5 68.5q63 236 125 428l6 26q0 18 -14 19q-49 0 -273 -201 q-211 -180 -295 -373q-10 -31 -12 -53zM309 -2q0 -25 37 -25q12 0 39 13q8 0 16 4q39 160 39 172q0 14 -6 14q-20 0 -59 -47q-66 -84 -66 -131z" />
<glyph unicode="'" horiz-adv-x="335" d="M10 1001q0 23 15 72q33 115 59 232q14 55 59 55q119 -12 119 -125q0 -186 -135 -277q-24 -16 -47 -16q-25 0 -47.5 18.5t-22.5 40.5z" />
<glyph unicode="(" horiz-adv-x="665" d="M0 340q0 104 55.5 366.5t148.5 451t206 194.5l79 -11q61 -6 62 -65q0 -43 -78 -80q-94 -45 -163.5 -268t-106.5 -467q-33 -213 -33 -391q2 -90 37 -207q20 -76 125 -137q18 -10 18 -29q0 -37 -61 -49h-31q-207 0 -250 364q-8 66 -8 328z" />
<glyph unicode=")" horiz-adv-x="688" d="M-39 -281q0 18 19 43q281 410 393 897q33 137 33 273q0 213 -82 416q-18 45 -52 78.5t-34 52.5q8 35 47 34q43 0 102 -38q193 -131 193 -592q0 -276 -109 -582.5t-338 -574.5q-42 -50 -108 -50q-31 0 -52 17q-12 10 -12 26z" />
<glyph unicode="*" horiz-adv-x="751" d="M2 840q10 57 66 86q129 68 129 164q0 68 -64 151q-41 53 -41 72q0 25 25 37q14 8 28 8l33 -17q14 -14 60 -88q23 -35 32 -34q16 0 37 102q12 55 27.5 100t60.5 45q82 0 82 -92q0 -37 -10 -92q-6 -29 -6 -43q0 -12 4 -12q10 0 76 59q27 25 47 25q29 0 47 -45q6 -18 6 -33 q0 -35 -41 -72q-137 -123 -137 -182q0 -51 106 -199q31 -43 31 -65q-10 -37 -45 -37q-23 4 -63 49q-31 27 -46 55q-23 41 -45 41q-27 0 -26 -47q0 -137 -53 -137q-51 10 -73 46t-22 69q0 10 5.5 30.5t5.5 34.5q0 10 -25 15q-20 0 -37 -25q-6 -12 -14 -18.5t-17 -14.5 q-33 -37 -59 -37q-20 0 -47 27q-37 37 -37 74z" />
<glyph unicode="+" horiz-adv-x="1126" d="M104 401q0 41 64 54q92 18 205 53q63 20 129 39q49 12 65 82l51 221q18 76 72 76q10 0 25 -4q86 -20 86 -101q0 -31 -21 -73q-37 -80 -37 -115q0 -53 91 -53q47 0 120 6q80 0 80 -92q0 -90 -69 -91l-15 3q-121 29 -178 28q-31 0 -59.5 -20.5t-40.5 -198.5q-4 -49 -4 -100 q0 -94 14 -138q6 -23 6 -43q-2 -23 -29 -36q-18 -9 -34 -9q-31 0 -66 31q-74 72 -78 158l-2 43q0 66 15 131q8 37 8 61q0 55 -37 56q-29 0 -82 -27q-104 -53 -182 -53q-35 0 -60 24q-37 37 -37 88z" />
<glyph unicode="," horiz-adv-x="372" d="M4 -258q0 25 41 102q68 127 68 213q0 37 -9 76v25q0 29 33 30q20 0 39 -6q119 -41 119 -153q0 -100 -64 -195q-88 -129 -186 -129q-41 0 -41 37z" />
<glyph unicode="-" d="M70 430q0 33 24 43q14 4 53 4q270 51 418 51q131 0 291 -49q72 -23 72 -94q0 -53 -37 -53q-12 0 -20.5 2t-14.5 2q-178 37 -293 37q-129 0 -330 -51q-20 -7 -40 -7q-57 0 -99 58q-25 33 -24 57z" />
<glyph unicode="." horiz-adv-x="309" d="M25 6q0 123 108 123q53 0 92 -20q31 -14 31 -48q-4 -18 -8 -53q-6 -45 -26 -85t-81 -40q-117 2 -116 123z" />
<glyph unicode="/" horiz-adv-x="561" d="M131 -373q2 600 389 1723q25 70 88 75q98 0 99 -100q0 -35 -60 -213q-334 -1008 -334 -1382q0 -86 23 -166q-1 -39 -60 -43h-12q-14 0 -38.5 2t-57.5 28.5t-37 75.5z" />
<glyph unicode="0" horiz-adv-x="663" d="M-12 145q0 352 174 664q39 68 84 72q49 0 93 -42t101 -69q47 -25 88 -57q80 -63 80 -234q0 -119 -53 -295t-190 -284q-68 -52 -142 -52q-49 0 -98 21q-125 51 -135 203zM143 104q0 -112 66 -112q59 6 114.5 102t93.5 228.5t38 205.5q0 106 -93 172q-18 12 -34 13 q-63 0 -154 -394q-31 -133 -31 -215z" />
<glyph unicode="1" horiz-adv-x="372" d="M-25 121q20 293 66 504q35 147 59 297q8 43 56 49q119 -12 127 -80q0 -37 -9 -76q-90 -342 -114 -676q4 -68 17 -97.5t16 -55.5q-1 -41 -46 -47h-10q-23 0 -53 16q-98 59 -109 166z" />
<glyph unicode="2" horiz-adv-x="804" d="M-63 -4q0 35 55 82q164 143 308 304t243 357q16 31 16 52q0 27 -37 26q-33 0 -89 -23.5t-114.5 -59.5t-77 -56.5t-38.5 -20.5q-23 0 -43 19q-51 49 -51 90q0 43 72.5 95t230.5 71q31 4 61 4q113 0 178 -55q80 -68 80 -148q0 -59 -43 -125q-109 -174 -250 -325 q-35 -37 -35 -52q0 -20 62 -20q145 0 240 -94q18 -18 18 -35q0 -37 -41 -37q-78 29 -145 29q-115 0 -287 -101q-66 -37 -121 -65q-43 -23 -72 -23q-27 0 -55 23q-66 45 -65 88z" />
<glyph unicode="3" horiz-adv-x="759" d="M-160 -233q0 35 35 34l27 -2q18 0 32 6q406 199 553 572q8 20 9 39q0 39 -50 39l-28 -6q-139 -27 -256 -105q-39 -25 -70 -25q-57 2 -106 78q-16 25 -17 43q0 20 70 72q162 119 287 272q29 35 28 54q0 18 -30 18q-47 0 -185 -55q-33 -12 -57 -13q-57 2 -90 80q-4 8 -4 17 q2 31 59 55q113 49 232 49q182 0 243 -121q14 -31 15 -59q-2 -55 -80 -137q-37 -37 -37 -54q0 -18 47 -34q201 -72 201 -222q0 -66 -50 -155q-186 -338 -536 -512q-44 -21 -105 -21q-57 2 -97 24.5t-40 68.5z" />
<glyph unicode="4" horiz-adv-x="837" d="M-59 346q4 41 34 82q223 291 451 582q23 31 55 30q35 -2 64 -24q35 -29 35 -66q-2 -31 -25 -59q-319 -397 -319 -418q0 -8 24 -8q43 0 340 178q20 12 43 12q37 -2 92 -51q25 -20 25 -47q-2 -33 -19 -61q-27 -51 -65 -154q-70 -180 -78 -291q0 -49 8 -74.5t8 -48.5 q0 -41 -61 -41q-33 2 -59 37q-66 80 -66 174q0 80 41 215q14 47 14 64q0 23 -12 22q-25 0 -111 -63.5t-192 -106.5q-43 -18 -86 -18q-57 4 -99 46t-42 89z" />
<glyph unicode="5" horiz-adv-x="700" d="M-16 500q0 43 19.5 88t33.5 86q33 92 82 173t147 130q51 27 88 27q25 0 54.5 -13.5t58.5 -13.5q37 0 74 6t82 6q43 0 103 -28.5t60 -71.5q0 -45 -41 -45q-16 0 -32 6q-29 10 -95 10q-141 0 -281 -96t-179 -275l-2 -24q0 -47 69 -51q59 -4 144 -27q207 -55 206 -188 q0 -53 -77 -144q-68 -80 -153 -141.5t-146 -63.5q-119 16 -119 93q0 14 11 21t32.5 8t36.5 10q129 86 198 221q10 20 11 35q0 33 -47 32q-229 0 -316 148q-23 37 -22 82z" />
<glyph unicode="6" horiz-adv-x="688" d="M-33 252q0 113 57.5 340t147.5 401q82 156 141 162q74 -12 82 -61q0 -29 -10 -56l-84 -202q-61 -150 -61 -213q0 -33 22 -33q14 0 33 12q61 35 123 35q55 0 110 -31q74 -45 74 -147q-14 -283 -192 -545q-68 -98 -168 -98q-35 0 -74 16q-158 59 -184 256q-16 141 -17 164z M154 92q0 -131 49 -131q47 6 154.5 209t107.5 303q-10 68 -84 68q-106 0 -150 -90q-78 -158 -77 -359z" />
<glyph unicode="7" horiz-adv-x="649" d="M-70 866q0 33 23 39q14 2 31 2q307 27 544 113q29 8 54 8q59 0 102 -53q20 -23 21 -45q0 -29 -31 -78q-268 -426 -418 -905q-39 -125 -39 -215q0 -55 -7 -84t-52 -35q-70 0 -97 70q-20 51 -20 102q0 25 4 49q35 180 100 352q121 317 211 488q51 98 52 110q0 31 -76 31 q-57 0 -195 -27q-70 -14 -96 -14q-41 0 -75 22.5t-36 69.5z" />
<glyph unicode="8" horiz-adv-x="720" d="M-94 774q0 20 16.5 64.5t161.5 138.5q168 111 356 110q119 0 197 -55q70 -47 70 -141q0 -104 -140 -371q-82 -154 -94 -321q-25 -293 -123 -394q-35 -38 -92 -38q-43 0 -98 26q-123 57 -142 191q-4 41 -4 84q0 94 33 217t86 215q8 14 8 28q0 43 -106 103 q-129 72 -129 143zM59 743q0 -33 66 -65q117 -57 209 -150q17 -18 37 -18q14 0 22 20l47 99q68 143 84 299q0 59 -63 59q-231 -25 -375 -190q-27 -31 -27 -54zM178 -2q0 -57 11.5 -64.5t21.5 -7.5q29 0 57 58q53 111 54 274q0 33 -6.5 86t-43.5 53q-47 0 -79 -219 q-14 -94 -15 -180z" />
<glyph unicode="9" horiz-adv-x="870" d="M-156 207q0 106 103 276q201 403 391 521q45 29 94 30q76 0 152 -67q14 -12 14 -37q0 -39 -27 -41q-10 0 -27.5 7t-33.5 7q-61 0 -184 -170q-139 -193 -238 -377q-53 -96 -53 -123q0 -8 4 -8q10 0 41 33q262 266 491 561q33 41 64 43q16 0 37 -6q88 -29 88 -106 q-33 -287 -51 -418q-88 -602 -293 -735q-33 -23 -76 -25q-98 0 -219 121q-29 27 -29 43q0 25 31 24q16 0 35 -10q51 -27 94 -26q90 0 158 122q27 51 96 322q63 242 63 334q-2 41 -16 41q-16 0 -154 -162l-219 -258q-66 -74 -133 -76q-31 0 -57 10q-141 57 -146 150z" />
<glyph unicode=":" horiz-adv-x="309" d="M25 6q0 123 108 123q53 0 92 -20q31 -14 31 -48q-4 -18 -8 -53q-6 -45 -26 -85t-81 -40q-117 2 -116 123zM25 799q0 123 108 123q53 0 92 -20q31 -14 31 -48q-4 -18 -8 -53q-6 -45 -26 -85t-81 -40q-117 2 -116 123z" />
<glyph unicode=";" horiz-adv-x="339" d="M4 -258q0 25 41 102q68 127 68 213q0 37 -9 76v25q0 29 33 30q20 0 39 -6q119 -41 119 -153q0 -100 -64 -195q-88 -129 -186 -129q-41 0 -41 37zM25 799q0 123 108 123q53 0 92 -20q31 -14 31 -48q-4 -18 -8 -53q-6 -45 -26 -85t-81 -40q-117 2 -116 123z" />
<glyph unicode="&#x3c;" horiz-adv-x="626" d="M35 463q0 39 53 114.5t121 141.5q74 74 117 74q66 0 98 -62q8 -14 8 -26q0 -29 -37 -62q-4 -2 -39 -37q-80 -80 -127 -123q-39 -39 -39 -59q0 -6 11.5 -20.5t125 -32t210.5 -78.5q41 -27 41 -57q-1 -33 -60 -33q-72 0 -215 35q-268 61 -268 225z" />
<glyph unicode="=" horiz-adv-x="1032" d="M-33 367q0 35 25 45q14 4 53 4q303 51 514 51q164 0 328 -49q68 -23 67 -94q0 -53 -34 -54q-12 0 -21 2q-156 39 -340 39q-178 0 -428 -51q-23 -6 -41 -6q-57 0 -98 57q-25 33 -25 56zM-33 676q0 35 25 45q14 4 53 4q303 51 514 51q164 0 328 -49q68 -23 67 -94 q0 -53 -34 -53q-12 0 -21 2q-156 39 -340 39q-178 0 -428 -52q-23 -6 -41 -6q-57 0 -98 58q-25 33 -25 55z" />
<glyph unicode="&#x3e;" horiz-adv-x="632" d="M10 748q10 53 29 53q18 0 47 -15q18 -10 35 -12q170 -27 319 -112q113 -66 113 -162q0 -53 -45 -105q-131 -150 -303 -250q-31 -18 -60 -18q-41 0 -73 41q-16 23 -17 41q0 23 41 57l8 4q80 74 138 121q127 100 127 137q0 2 -4.5 20.5t-262.5 100.5q-43 14 -71 47 q-20 20 -21 52z" />
<glyph unicode="?" horiz-adv-x="888" d="M84 104q0 66 57 144q225 305 363 510q125 186 217 391q51 117 51 186q0 33 -12 58q-27 51 -88 51q-23 0 -82.5 -15.5t-163.5 -121.5q-33 -33 -55 -90q-35 -86 -68 -91q-14 0 -22 2q-90 39 -91 113q0 14 5 31q27 96 122 181t177 95q41 6 79 6q100 0 172 -28 q217 -82 218 -258q0 -225 -498 -899l-146 -195q-41 -57 -40 -84q2 -23 35.5 -36t33.5 -42q0 -43 -78 -43q-51 0 -114.5 31t-71.5 104zM272 -319q0 51 14.5 92t90.5 49q33 0 65.5 -14.5t32.5 -77.5q0 -170 -119 -205l-14 -4q-66 0 -68 106q-2 25 -2 54z" />
<glyph unicode="@" horiz-adv-x="1546" d="M-23 72q0 8 10.5 123.5t132.5 323.5t292 372q307 293 641 295q311 -25 415 -316q35 -94 35 -196q0 -104 -52 -274.5t-275 -358.5q-49 -41 -109 -41q-166 0 -229 178q-20 61 -43 64q-23 0 -66 -37q-57 -49 -205 -144q-45 -29 -84 -28q-61 0 -112 59q-33 39 -33 74 q0 72 225 317q96 104 228 172q35 18 67 19q70 0 105 -51q12 -18 12 -37q0 -18 -11.5 -39t-29.5 -21q-20 0 -37.5 12.5t-30.5 12.5q-20 0 -45 -16q-96 -63 -176 -160q-111 -135 -110 -166q0 -8 8 -8q53 18 182 123q113 90 139.5 120.5t57.5 30.5q23 0 49 -12q63 -31 63 -101 q-2 -31 -17.5 -69.5t-15.5 -77.5q0 -33 37 -51q23 -12 45 -12q57 0 144 90q205 211 205 430q0 113 -60 227q-90 176 -256 176q-37 0 -78 -10q-311 -76 -565 -367.5t-278 -609.5v-25q0 -270 274 -270q139 0 471 98q160 49 184 50q27 0 27 -17q0 -4 -8 -27.5t-101.5 -89 t-234.5 -114.5q-189 -47 -332 -47q-432 0 -455 426z" />
<glyph unicode="A" horiz-adv-x="741" d="M-371 201q0 47 52.5 73t136.5 41q143 31 192 76l430 899q55 109 164 109q39 0 82 -13q72 -25 72 -73q0 -43 -21 -107q-159 -586 -159 -949q0 -384 96 -546q20 -33 20 -47q0 -16 -22 -32.5t-47 -16.5q-45 0 -86 41q-68 74 -97.5 187.5t-44.5 217.5q-12 78 -25.5 126.5 t-35.5 48.5q-96 0 -157.5 -20.5t-82.5 -109.5q-6 -29 -10 -75q-23 -168 -47 -185q-16 -12 -37 -12q-31 0 -68 27q-69 46 -69 114q0 35 15.5 76t15.5 62q0 23 -23 22q-18 0 -77.5 -25.5t-76.5 -25.5q-31 0 -60.5 36t-29.5 81zM221 410q0 -17 41 -17q20 0 49 6q74 16 82 72 l10 66q37 190 37 270q0 35 -8 35q-18 0 -137 -240q-74 -154 -74 -192z" />
<glyph unicode="B" horiz-adv-x="1040" d="M-129 1004q0 57 121 154t309 188q217 104 387 104q147 0 217 -121q10 -25 10 -49q0 -121 -243 -362q-102 -106 -103 -127q0 -8 19 -11q170 -23 283.5 -85t113.5 -234q-2 -174 -126 -336t-288.5 -293t-294.5 -199q-71 -34 -149 -34q-14 0 -70.5 4t-89.5 39q-8 8 -8 18 q0 25 68 53q92 35 244.5 140.5t299 244t217.5 269.5q37 66 37 118q0 55 -37 97q-59 57 -163 57q-18 0 -95 -7t-189 -64.5t-132.5 -175.5t-20.5 -191q0 -66 7 -119v-19q0 -63 -66 -63q-29 0 -55 18q-55 41 -68 97q-8 37 -8 75q0 63 92 623q23 135 23 184q0 31 -15 31 q-14 0 -47 -41q-56 -65 -101 -65h-1q-6 0 -35 5t-43 77zM289 852q-1 -53 22 -53q29 0 119 94q106 106 195 246q49 80 49 114q0 25 -27 25q-176 0 -317 -223q-8 -12 -19 -58q-23 -88 -22 -145z" />
<glyph unicode="C" horiz-adv-x="972" d="M-18 -23q33 723 503 1276q70 78 160 78q4 0 53.5 -2t98.5 -86q24 -41 24 -97q0 -33 -6 -67q-29 -118 -91 -118h-1q-31 0 -37 26.5t-6 56.5q0 20 -2 56.5t-23 36.5q-49 0 -112 -99q-231 -334 -305 -719q-39 -199 -39 -325q0 -119 34 -172q16 -33 78 -33q133 0 480 256 l26 25q37 41 66 41q12 0 36.5 -14.5t26.5 -33.5q0 -55 -68.5 -134t-222 -166t-315.5 -113q-41 -8 -76 -8q-283 0 -282 335z" />
<glyph unicode="D" horiz-adv-x="909" d="M-16 -39q0 135 34 344q53 319 87 454.5t34 166.5q0 39 -49 55t-53 72q0 14 4 30q63 231 360 340q137 51 244 52q121 0 201 -68q69 -62 69 -226q0 -35 -8 -163q-8 -127 -102 -369.5t-229.5 -457t-278.5 -330.5q-113 -92 -197 -92q-37 0 -69 18q-47 27 -47 174zM176 88 q2 -104 27 -104q66 4 243 356q115 223 209 463q115 295 115 409q0 141 -154 142q-82 -2 -140 -32t-66 -73q-86 -401 -111 -491q-88 -332 -123 -670z" />
<glyph unicode="E" horiz-adv-x="841" d="M-260 356q0 51 92 66q133 18 184 106q20 25 68 207q41 164 41 199q-2 35 -84 35h-27q-23 0 -39 26.5t-18 57.5q0 47 59 69q31 12 62 21q57 16 104 46t73 99.5t105 69.5q74 0 74 -39l-2 -12q-8 -35 -8 -45q0 -31 57 -31q180 29 293 29q78 0 123 -15q61 -20 66 -84 q0 -51 -39 -51q-530 0 -582 -117q-10 -39 -35 -96q-80 -213 -80 -287q0 -55 74 -55q29 0 121 18q123 27 229 27q178 0 189 -117q0 -49 -60 -53q-47 0 -184 8q-129 0 -254 -37q-113 -35 -143 -79q-18 -29 -19 -76q0 -324 88 -326q115 0 232 103q27 23 49 22q18 0 35.5 -18.5 t17.5 -40.5q0 -88 -166 -166q-51 -25 -117 -27q-59 0 -102 12q-195 72 -209 295q-2 147 -10 161.5t-35 14.5q-29 -2 -90 -16q-25 -6 -45 -6q-29 0 -45 14q-43 35 -43 88z" />
<glyph unicode="F" horiz-adv-x="731" d="M-301 354q0 6 7 44t214 61q41 4 64 8q53 12 67 86q84 420 84 446q-190 -43 -285 -43q-82 0 -90 33q-4 14 -4 27q0 82 295 141q74 10 124 42t58 116q6 45 82 45q66 0 88 -66q12 -43 82 -43q51 0 342 39q84 0 125 -33q25 -23 25 -51q0 -16 -14.5 -51t-167.5 -37 q-111 -2 -228 -14q-190 -20 -205 -53q-124 -457 -124 -497q0 -26 45 -26l127 2q301 0 301 -67q-12 -76 -72 -76q-109 0 -383 -31q-70 -8 -93.5 -183t-23.5 -245q0 -72 23 -188v-14q-1 -39 -58 -39q-12 0 -67 6t-62.5 86t-7.5 133q0 137 17 258q4 41 4 68q0 53 -27 53l-145 2 q-117 4 -117 61z" />
<glyph unicode="G" horiz-adv-x="1226" d="M-82 18q0 47 29.5 181.5t178 382t308.5 445.5t250 271.5t180 73.5q229 0 230 -213q0 -78 -70 -123q-18 -10 -41 -12q-16 0 -30.5 12.5t-14.5 32.5t10 41q27 59 27 90q0 29 -23 29q-20 0 -61 -27q-154 -109 -327 -327t-301 -464.5t-144 -445.5q0 -39 18 -39q20 2 70 47 l461 469q12 10 12 31q-2 20 -17.5 22.5t-29.5 2.5q-76 0 -117 82q-8 16 -10 32q0 47 59.5 49.5t167.5 22.5q180 35 291 39q84 0 158 -18q82 -20 100 -132q0 -47 -45 -49q-18 0 -38.5 6.5t-47.5 6.5q-215 -6 -215 -789q0 -92 4 -215q0 -80 -88 -80q-35 0 -66 27 q-66 63 -73 231q0 170 57 430q25 127 25 166q0 16 -7 17q-12 0 -202 -218q-131 -145 -267 -286q-70 -68 -153 -70q-63 0 -129 37q-119 86 -119 231z" />
<glyph unicode="H" horiz-adv-x="1112" d="M-164.5 480.5q19.5 11.5 105.5 19.5t119.5 48t56.5 128q39 176 90 348q10 31 24 84q10 41 66 41q14 0 65.5 -7t51.5 -61q0 -31 -6 -51q-100 -311 -101 -379q0 -94 90 -94q76 0 260 33q104 20 119 88q74 295 126 496.5t128 203.5q70 0 70 -88q0 -86 -96 -528 q-150 -645 -150 -967q0 -84 25 -235v-13q-1 -51 -62 -53h-10q-61 0 -96 54.5t-43 132.5q-2 20 -6 157q0 266 26 424q6 31 6 55q0 102 -88 103q-127 0 -276 -45q-76 -23 -92 -39q-31 -45 -50 -137q-20 -100 -20 -187q0 -63 20 -166q0 -47 -73 -47q-127 0 -135 90l-3 50 q0 90 23 174t23 137q0 57 -64 57q-86 0 -111 21q-32 30 -32 96q0 45 19.5 56.5z" />
<glyph unicode="I" horiz-adv-x="624" d="M-221 -199q0 37 21.5 56.5t93 51.5t101.5 80t103 466q121 657 121 675q0 27 -12 27q-27 0 -107 -43q-121 -70 -188 -72q-53 0 -84 50q-10 23 -10 53q0 31 71 55q422 180 611 197q70 6 118 6q156 0 156 -82q0 -2 -3 -24.5t-71 -28.5q-119 -12 -175 -28.5t-80.5 -69 t-71.5 -246.5q-123 -459 -137 -764l-3 -17q2 -59 33 -59q29 0 66 16q80 33 184 34q104 -2 105 -97q0 -57 -112 -61.5t-232.5 -54.5t-331.5 -171q-41 -24 -82 -24q-14 0 -49 6t-35 69z" />
<glyph unicode="J" horiz-adv-x="618" d="M-436 -489q0 12 12 24t27 12q12 0 37 -12q53 -22 98 -22h4q213 0 352 440q115 362 193 950q24 183 24 209q0 61 -59 62q-84 0 -272 -80q-88 -39 -125 -39q-16 0 -56 65q-8 16 -8 29q0 47 96 82q223 82 664 143q141 20 229 21q37 0 66 -4q84 -27 84 -84q0 -53 -82 -54 q-23 0 -44.5 3.5t-37.5 3.5q-117 0 -176 -15q-49 -12 -66 -57q-12 -35 -28 -176q-164 -1524 -672 -1643q-26 -6 -51 -6q-100 0 -187 102q-23 25 -22 46z" />
<glyph unicode="K" horiz-adv-x="856" d="M-76 471q0 31 39 47q90 41 109 162q61 305 129 604q23 86 88 90q41 0 70.5 -28.5t31.5 -71.5q0 -18 -6 -47q-92 -285 -92 -379q0 -61 16 -62q12 0 39 27l144 145q264 254 493 545q31 35 80 35q4 0 30.5 -1t49.5 -42q8 -12 8 -27q0 -31 -29 -71q-354 -428 -772 -795 q-45 -37 -45 -72q0 -18 8 -34q106 -227 245.5 -431t342.5 -360q31 -27 31 -57q0 -31 -57 -49q-25 -9 -52 -9q-35 0 -88 18.5t-148 128t-193.5 233.5t-168.5 266q-16 33 -26 32q-35 -4 -35 -270q0 -82 8 -156q0 -67 -63 -67h-2q-125 0 -132 190q0 96 19 203q18 86 18 154 q0 86 -67 116q-23 12 -23 33z" />
<glyph unicode="L" horiz-adv-x="716" d="M-274 -256q0 43 98 84q180 76 180 248v45q-4 61 -6 125q0 584 203 1253q20 66 73 66q41 0 77 -19.5t36 -52.5q0 -12 -4 -25q-207 -834 -207 -1267l2 -78q20 -156 144 -156q119 0 290 43q90 20 164 33q78 0 115 -42t39 -83q0 -55 -45 -55h-94q-199 0 -584 -117 q-263 -74 -359 -78h-14q-94 0 -108 76z" />
<glyph unicode="M" horiz-adv-x="1316" d="M-39 -27q0 31 41 267q82 485 209 872q70 213 166 213q66 0 127 -43t61 -231l-10 -641q0 -41 14 -41q37 0 230 374q98 190 207 383q233 410 352 410q14 0 28 -6q59 -31 60 -88q0 -23 -10 -51q-172 -479 -269 -830q-96 -362 -96 -579q0 -152 59 -218q12 -12 13 -24 q0 -14 -23 -33q-28 -29 -94 -29q-113 0 -124 98.5t-11 160.5q2 199 67 514q10 102 86 342q53 176 54 198q-8 0 -72 -147q-55 -125 -133 -291q-193 -410 -324 -520q-35 -31 -65 -31q-33 0 -60 41q-63 121 -67 262t-4 268q0 162 10 314v61q-25 0 -141 -538q-84 -387 -88 -496 q-4 -76 -72 -76q-43 0 -82 35t-39 100z" />
<glyph unicode="N" horiz-adv-x="1136" d="M-6 -68q0 539 104 1069q49 360 275 361q115 0 147 -131l37 -236q47 -311 127 -626q29 -102 43 -103q16 2 25 92q80 467 237 1069l12 68q20 164 123 164q117 0 129 -82q0 -31 -14 -68q-55 -162 -147 -491q-211 -745 -211 -1022q0 -49 12 -105q0 -33 -34 -52t-77 -19 q-80 0 -118 71q-211 315 -277 777q-61 407 -74 407q-8 0 -24 -57q-43 -133 -92 -582q-31 -303 -31 -452q0 -61 4 -97.5t27 -66.5q10 -12 22 -47q0 -16 -21 -37t-48 -25h-9q-20 0 -43 8q-92 33 -102 105q-2 12 -2 108z" />
<glyph unicode="O" horiz-adv-x="933" d="M4 190v46q23 690 361 1316q47 94 110 103q27 0 45 -4q127 -29 139 -119q4 -55 12.5 -61.5t45.5 -18.5q244 -111 244 -352q0 -133 -56 -418q-98 -524 -321 -780q-121 -140 -287 -140q-113 0 -195 88q-98 104 -98 340zM201 229q4 -287 86 -344q8 -6 24 -6q39 0 86 31 q211 154 351 833q55 270 55 373q0 20 -2 33q-29 223 -209 223q-20 0 -44 -3t-46.5 -19.5t-100 -194.5t-145.5 -455q-55 -227 -55 -471z" />
<glyph unicode="P" horiz-adv-x="851" d="M-76 1022q0 57 33 111.5t119 146.5q70 57 84 127q8 35 71 35q129 0 222 26q100 31 192 31q160 0 275 -86q127 -94 127 -258q0 -55 -21 -111q-47 -119 -74 -153q-193 -358 -469 -655q-92 -109 -209 -121q-33 0 -75 4q-61 0 -78 -371q-9 -84 -60 -88h-18q-96 0 -96 102 q53 621 164 1231q8 51 8 76q-2 23 -17 23q-4 0 -12 -2.5t-29 -85.5q-12 -88 -69 -89q-68 0 -68 107zM184 285q0 -66 29 -66h14q14 2 74 62q342 340 530 780q35 94 35 160q0 157 -214 157h-3q-33 0 -115.5 -13t-149.5 -54t-81 -166q-27 -266 -73 -529.5t-46 -330.5z" />
<glyph unicode="Q" horiz-adv-x="948" d="M0 168v82q0 444 164 803q166 366 404 366h1q209 0 312 -131q82 -109 82 -268q0 -57 -9 -123q-68 -481 -239 -911q-8 -23 -8 -47q0 -51 32.5 -115t82.5 -90.5t50 -60.5q0 -60 -118 -60q-100 0 -185 137q-12 25 -47 25q-12 0 -47 -8q-61 -14 -133 -15q-133 0 -215 92 q-111 125 -127 324zM205 176q0 -299 133 -299q20 0 45 8q102 31 102 131q0 18 -2 31q-43 268 -43 381q0 55 3 216t96 161q90 0 92 -82q-2 -102 -2 -289q0 -180 22 -180q8 0 56 184q106 416 106 584q0 23 -2 43q-45 225 -168 225q-51 0 -117 -35q-150 -78 -266 -565 q-12 -47 -31 -190q-24 -189 -24 -314v-10z" />
<glyph unicode="R" horiz-adv-x="817" d="M-33 102q0 217 66 553q43 209 43 260q0 12 -4 35t-49 54q-53 37 -54 77q0 39 49 80l52 43q92 63 118 139q4 25 23 25q61 -12 88 -12q78 2 202 41t271 39q141 0 232 -142q23 -39 24 -82q0 -82 -88 -208q-213 -350 -530 -613q-41 -33 -41 -76q2 -23 12 -51 q172 -442 485 -670q20 -14 21 -34q0 -62 -70 -62q-106 0 -215 107q-256 231 -379 557q-23 67 -39 67q-32 0 -32 -256v-16q-2 -109 -70 -111q-18 0 -47 17q-59 35 -68 239zM250 475q51 0 168 123t235.5 291t150.5 230.5t32 103.5q-4 75 -116 75h-3t-64.5 -1t-198 -38.5 t-151.5 -166.5q-110 -475 -110 -586q0 -31 57 -31z" />
<glyph unicode="S" horiz-adv-x="770" d="M-31 639q0 45 22.5 171t144.5 331t290 360q47 43 121 82q94 49 170 49q111 0 180 -125q18 -31 18 -61q0 -33 -19 -62.5t-50 -29.5q-6 0 -29.5 3t-23.5 46q0 78 -52 78q-18 0 -36 -6q-117 -39 -226.5 -185.5t-189.5 -320.5q-117 -254 -117 -367q0 -29 11.5 -67.5 t74.5 -71.5q326 -174 367 -246q26 -45 26 -98q0 -72 -59.5 -160t-206 -195.5t-283.5 -107.5q-65 0 -65 32q0 28 72 70q57 33 147 127q131 139 131 228q0 57 -209 178t-209 348z" />
<glyph unicode="T" horiz-adv-x="585" d="M-381 1090q0 55 70.5 75.5t294.5 118.5q203 90 411 160q201 68 418 80l39 -2q147 -8 147 -97q0 -74 -34 -102q-6 -4 -15 -4q-16 0 -61 24q-53 31 -139 31q-109 0 -213 -57q-94 -53 -127 -154q-199 -664 -199 -1034q0 -180 74 -266q18 -18 18 -41q0 -51 -45 -53h-6 q-16 0 -45 10q-123 43 -158 205q-18 102 -18 198q0 270 98 656q53 207 84 303q10 31 10 49t-10 18q-31 0 -250 -112.5t-270 -112.5t-70 80q-4 14 -4 27z" />
<glyph unicode="U" horiz-adv-x="1011" d="M-16 205q0 78 15 228.5t66.5 393t84.5 353.5q12 45 65 45q12 0 58 -7.5t46 -58.5q0 -37 -15 -92t-75 -426q-53 -315 -53 -436q0 -8 1 -70.5t20 -62.5q33 2 632 1167q31 51 93 51q113 0 114 -53q0 -37 -14 -74q-184 -508 -184 -1044q0 -78 4 -158q6 -45 20.5 -85t14.5 -77 q-1 -39 -95 -49h-16q-82 0 -92 96q-10 180 -10 246q0 141 16 266q20 199 20 273q-4 49 -14 49q-16 -2 -53 -84q-164 -383 -195.5 -455.5t-75.5 -128.5q-55 -78 -174 -78q-109 0 -172 89q-32 59 -32 175v7z" />
<glyph unicode="V" horiz-adv-x="817" d="M-39 -27q0 205 76 645q88 518 203 519q4 0 43 -5.5t41 -76.5l2 -11q0 -16 -7 -34q-35 -115 -77 -322q-88 -426 -88 -639q0 -102 24 -102q23 2 66 71q303 506 448 787q129 299 129 389q-2 88 -30 109q-18 12 -19 36q0 66 62 93q18 8 34 8t29 -8q76 -45 82 -164l2 -19 q0 -201 -162 -563q-117 -268 -270 -528q-288 -486 -399 -492q-80 0 -140 107q-49 96 -49 200z" />
<glyph unicode="W" horiz-adv-x="1218" d="M-82 -51q0 240 47 553q33 227 131 766q10 80 66 84q104 0 110 -80q0 -23 -4 -39q-151 -840 -151 -886q0 -40 16 -40q18 0 60.5 132t154.5 370q137 289 240 289q96 -8 96 -72v-35q-8 -238 -8 -338q0 -184 10 -329q18 -295 70 -295q8 0 22.5 6t77 138t129.5 366 q96 332 96 598q-8 213 -59 303q-10 18 -10 39q0 14 12 28.5t35 14.5q20 0 49 -19q104 -70 125 -168q14 -59 14 -125q0 -123 -43 -368q-35 -203 -98 -426q-145 -512 -324 -512h-90q-92 2 -143 149q-72 227 -72 482q0 41 2 73.5t2 48.5q0 29 -10 29l-14 -6q-18 -14 -262 -743 q-21 -113 -115 -119h-29q-125 8 -133 131z" />
<glyph unicode="X" horiz-adv-x="983" d="M0 -186q0 35 13.5 119.5t95 241.5t188.5 337q43 70 43 94q0 25 -60.5 204t-144.5 505q0 39 37 63q49 33 98 35q82 0 103 -78q92 -401 103 -454.5t36 -53.5q49 0 231 179q365 356 537 362q41 0 86 -39t47 -76q0 -39 -80 -77q-31 -14 -59 -17q-180 -8 -451 -295 q-176 -188 -202 -227q-47 -45 -48 -80q0 -37 11 -68q31 -82 59 -165q125 -399 285 -508q43 -29 43 -58q0 -20 -40.5 -52t-103.5 -34q-63 0 -156 129t-128 232q-115 326 -127 344q-90 -80 -169 -262.5t-110 -302.5q-25 -90 -67 -91q-70 0 -70 93z" />
<glyph unicode="Y" horiz-adv-x="989" d="M-45 457q0 211 70 555q43 201 67 288q39 106 117 107q82 0 82 -76q0 -49 -33 -178q-104 -387 -104 -756q0 -80 4 -164q4 -69 27 -69h1q25 0 54 29q45 51 197.5 316t307 547.5t203.5 389.5q23 45 74 47q49 0 71.5 -26.5t22.5 -53.5t-14 -57q-68 -139 -158 -434t-145 -643 q-59 -375 -60 -631q0 -49 2 -97q12 -199 105 -288q20 -18 20 -37q0 -20 -43 -41t-82 -23h-8q-197 8 -207 500q0 39 5.5 144.5t41 348t60.5 330.5q20 80 20 95q-6 0 -47 -80q-264 -539 -448 -539q-10 0 -89 11.5t-104 191.5q-10 59 -10 293z" />
<glyph unicode="Z" horiz-adv-x="964" d="M-387 -246q0 45 158.5 138.5t439.5 354.5t373 396t92 160q0 55 -98 98q-141 61 -367 62q-82 0 -133 -13q-20 -4 -37 -4q-76 0 -88 98q0 96 235 97q84 0 225.5 -20.5t292 -97.5t183.5 -206q4 -20 4 -43q0 -115 -145 -270q-150 -150 -308.5 -296.5t-158.5 -158.5 q0 -20 75 -20q70 0 342 34q225 23 371 23q51 0 94 -4q78 -14 137.5 -71.5t61.5 -96.5q0 -39 -49 -39q-20 0 -49 6q-240 47 -369 47q-150 0 -475.5 -49t-626.5 -227q-38 -25 -69 -25q-57 0 -97 78q-14 29 -14 49z" />
<glyph unicode="[" horiz-adv-x="598" d="M-33 -184q37 584 246 1179q12 35 14 54q0 27 -24 30q-35 8 -35 66q0 100 92 125q76 18 156 24q47 2 78.5 8.5t62.5 6.5q68 0 127 -35q51 -29 51 -68t-61 -39h-51q-164 0 -222 -180q-211 -657 -249 -1173v-43q0 -55 30 -56q27 0 78 41q41 35 70 35q41 0 41 -43 q0 -29 -29 -70q-74 -102 -162 -102h-47q-47 0 -110 78q-55 66 -56 162z" />
<glyph unicode="\" horiz-adv-x="382" d="M-129 1386q0 47 31 76q45 43 104 43q66 0 66 -43q-10 -47 -11 -106q0 -274 244 -895q76 -195 270 -664q16 -43 17 -73q0 -33 -17 -54q-26 -37 -69 -37q-8 0 -39 4.5t-61 63.5q-233 524 -406 1071q-100 297 -129 614z" />
<glyph unicode="]" horiz-adv-x="823" d="M-86 -430q0 10 8 24.5t25 14.5q16 -2 37.5 -9.5t40.5 -7.5q57 0 79 31q115 154 246 676q166 668 166 805q0 57 -25.5 87t-154.5 42q-31 2 -53.5 19.5t-22.5 43.5l4 13q6 35 43 34q76 0 225 -43q172 -53 173 -225q0 -35 -7 -74q-45 -303 -149 -632q-61 -195 -119 -392 l-104 -342q-37 -123 -152 -165q-41 -17 -80 -17q-74 0 -143 58q-37 29 -37 59z" />
<glyph unicode="a" horiz-adv-x="714" d="M-78 156q0 25 6 51q51 256 246 512q80 104 166 104q53 0 96 -33.5t43 -58.5t-8 -39q-23 -43 -49 -43q-29 0 -45.5 10.5t-28.5 12.5q-12 0 -33 -29q-88 -119 -176 -356q-12 -31 -12 -43q0 -10 6 -11q31 0 176 183q184 231 226 243q23 6 38 7q16 0 27 -4q57 -31 57 -117 q0 -37 -10 -76q-37 -150 -37 -262q0 -84 35 -162q8 -16 8 -27q0 -28 -51 -28q-16 0 -29 4q-161 51 -161 240q0 70 -15 69q-2 0 -100 -125q-55 -72 -106.5 -130t-104.5 -58q-41 0 -80 22q-84 47 -84 144z" />
<glyph unicode="b" horiz-adv-x="755" d="M0 76q0 27 7 167t77 525q37 207 66 416q12 92 81 92q115 0 121 -88v-41q-100 -530 -100 -602q0 -37 10 -37q16 0 60 27q125 79 213 79h2q206 0 206 -204q0 -362 -266 -650q-55 -59 -125 -63h-69q-113 0 -113 63q0 4 1 22.5t22 20.5q18 0 33.5 -3t31.5 -3q8 0 27.5 1 t42.5 30q215 266 237 608q0 72 -26 72q-33 0 -62 -19q-289 -186 -305 -491q-6 -115 -94 -115q-78 0 -78 193z" />
<glyph unicode="c" horiz-adv-x="557" d="M-33 186q0 160 109 404q66 150 127 225q45 57 123 57q147 0 147 -92q0 -18 -11 -26.5t-63 -24.5q-68 -20 -114 -115q-111 -225 -111 -471q0 -66 45 -92q14 -8 27 -8q45 0 190 160q18 20 47 20h27q23 0 22 -24q-12 -96 -67 -170q-82 -107 -242 -107q-133 0 -219 127 q-37 53 -37 137z" />
<glyph unicode="d" horiz-adv-x="808" d="M-4 133q0 389 237 748q70 104 188 105t151.5 78t74.5 210l92 309q27 90 74 92q27 0 45 -4q84 -20 86 -80q0 -43 -35 -164q-84 -281 -131 -471q-84 -334 -84 -788q0 -23 1 -273.5t104 -406.5q25 -14 24 -43q0 -31 -78 -33h-4q-78 0 -145 189q-66 178 -66 477q0 356 11 436 q0 12 -4 12q-6 0 -29 -65q-125 -387 -158 -479q-63 -180 -160 -181q-137 0 -174 148q-20 84 -20 184zM170 29q0 -25 18 -25t63.5 139.5t138.5 386t93 301.5q0 25 -12 25q-14 0 -47 -35q-254 -281 -254 -745v-47z" />
<glyph unicode="e" horiz-adv-x="647" d="M-25 215q0 27 11.5 121t87.5 246q137 270 293 270q127 0 192 -127q20 -39 21 -82q0 -53 -31 -111q-176 -260 -332 -333q-55 -27 -55 -56q0 -12 4 -24q18 -66 74 -66q82 0 219 101q90 66 129 100q49 49 78 49q14 0 28 -10q23 -20 23 -51q0 -33 -42 -96.5t-137.5 -135 t-170.5 -80.5q-43 -4 -80 -4q-311 0 -312 289zM188 377q1 -17 21 -21q53 37 102 129q74 135 74 168q0 16 -20 17q-14 0 -23 -11q-154 -262 -154 -282z" />
<glyph unicode="f" horiz-adv-x="649" d="M0 162q0 6 2 27.5t53 46.5q127 57 152 210q20 133 72 336q29 115 53 138q14 12 41 12q100 0 100 -80q0 -68 -72 -330q-12 -49 -12 -82q0 -49 31 -49q27 0 90 16.5t108 16.5q14 0 40 -2t71 -45q37 -33 37 -66q0 -20 -18.5 -42.5t-53.5 -22.5q-23 0 -47 14q-39 25 -74 25 q-47 0 -118 -33q-29 -14 -60 -27q-10 -4 -10 -16q0 -16 6 -29q86 -172 86 -479q0 -84 -8 -212t-72 -249q-49 -96 -137 -106l-51 2q-135 20 -152 151q-10 82 -10 144q0 207 64 540q6 29 6 54q0 10 -1 17t-5.5 24.5t-55.5 40t-55 55.5zM229 -653q1 -52 17 -52q16 2 63 271 q37 215 37 334q-10 121 -35 143q-6 -6 -12 -14.5t-16 -79.5q-53 -354 -54 -602z" />
<glyph unicode="g" horiz-adv-x="813" d="M-68 111q0 39 19 86q139 377 411 667q63 70 138 70q8 0 52 -4t97 -86q18 -27 19 -45q0 -20 -20.5 -37t-39.5 -17q-20 0 -38.5 24t-32.5 24q-16 0 -41 -29q-94 -106 -217 -300t-142 -329q53 35 147.5 137.5t178.5 213t108 167.5q14 31 54 31q90 0 120 -82q23 -55 23 -225 q0 -602 -215 -1012q-105 -194 -281 -194q-129 0 -249 120q-43 45 -43 101q0 67 57 67h2q35 0 47 -41q41 -135 168 -135q45 0 72.5 32t52.5 81q109 205 147 418q51 276 52 485q0 23 -17 23q-6 0 -20.5 -7.5t-268.5 -300.5q-67 -77 -143 -77h-2q-51 0 -109 34q-86 53 -86 140z " />
<glyph unicode="h" horiz-adv-x="813" d="M0 -14l2 28q43 254 82 509t41 265q35 301 86 598q18 115 90 115q119 -2 119 -102q0 -27 -6 -51q-20 -66 -68 -365q-35 -219 -35 -299q0 -31 4 -35q6 0 50 53q92 119 192 119q166 0 166 -157q0 -25 -4 -54q-18 -135 -19 -266q0 -258 58 -387q4 -10 10 -18q10 -18 12 -37 q0 -12 -8 -21q-22 -22 -63 -24h-15q-193 0 -192 413v279q0 31 -13 31q-10 0 -30 -31q-170 -270 -240 -584q-16 -80 -84 -84q-135 0 -135 105z" />
<glyph unicode="i" horiz-adv-x="290" d="M0 160q0 248 49 458q14 59 78 60q111 0 111 -88q0 -25 -5 -45q-51 -260 -63 -529q0 -23 5 -41t5 -38q0 -16 -3 -33t-54 -21h-6q-104 0 -113 142q-4 70 -4 135zM98 786v41q0 74 66 238l10 29q16 39 62 41q20 0 40 -9q70 -31 72 -73q0 -45 -104 -303q-19 -41 -56 -41l-28 2 q-57 12 -62 75z" />
<glyph unicode="j" horiz-adv-x="567" d="M-492 -463q0 78 64 78q51 0 61 -70l9 -30q29 -117 82 -117t112 47q231 178 373 532q106 264 106 486q0 78 -12 149q-27 145 -102 146q-49 0 -133 -94q-33 -37 -66 -37q-43 0 -72 37q-8 12 -8 30q0 84 82 127q133 68 229 68q92 0 185 -94q82 -82 82 -301q0 -297 -135 -629 q-115 -283 -295 -433.5t-293 -152.5h-10q-174 0 -252 207q-6 29 -7 51zM-35 1194q0 70 48 81t161 11q176 0 176 -74q-23 -92 -151 -127q-50 -14 -105 -14q-18 0 -65 4q-63 6 -64 119z" />
<glyph unicode="k" horiz-adv-x="622" d="M0 -197q0 258 113 809q27 137 43 217t28 160q14 92 68 92q129 0 129 -104q0 -33 -21 -107q-43 -158 -43 -213q0 -27 13 -26q23 0 73 59q98 106 193 107q35 0 59 -9q51 -18 54 -43q0 -27 -39 -55q-209 -158 -375 -491q-16 -35 -16 -62q0 -59 75 -90q117 -47 234 -100 q31 -14 33 -39q0 -41 -39 -41q-23 0 -60 12q-137 43 -237 86q-18 8 -35 8q-23 -2 -39 -20q-29 -35 -37 -172t-20 -166t-60 -31h-8q-74 10 -84 146q-2 35 -2 73z" />
<glyph unicode="l" horiz-adv-x="565" d="M0 180q0 217 87 548t173 661q20 77 82 77h2q18 0 41 -8q49 -18 49 -67q0 -23 -8 -54q-240 -918 -240 -1245q0 -153 55 -153h1q72 0 301 215q2 0 2 2q23 20 47 22q14 0 28.5 -12t14.5 -31q0 -20 -14 -45q-165 -278 -392 -278q-156 0 -200 149q-29 90 -29 219z" />
<glyph unicode="m" horiz-adv-x="1196" d="M0 12q123 733 229 733q41 0 67 -27.5t28 -64.5q0 -18 -7 -41q-59 -248 -59 -333q0 -41 12 -41q33 2 191 278q61 106 129 213q41 61 100 64q53 0 84 -31q25 -25 27 -66q0 -29 -2 -43q-31 -164 -31 -213q0 -23 4 -22q12 2 62 96q35 66 81 141q98 158 181 158q14 0 26 -4 q74 -29 74 -96q0 -66 -25 -154q-69 -233 -69 -387q0 -113 24 -158q12 -20 13 -34q0 -16 -23 -35q-16 -12 -37 -13q-94 0 -143 101q-23 45 -23 131q0 29 2.5 50.5t2.5 35.5q0 61 -13 61q-12 0 -39 -41q-37 -59 -65 -135q-80 -209 -189 -209q-23 0 -43 6q-92 29 -100 103 q0 104 27 258q-61 -61 -115 -191q-108 -258 -225 -266h-11q-27 0 -55 10q-88 31 -90 113v53z" />
<glyph unicode="n" horiz-adv-x="794" d="M0 96q0 27 4 45q59 260 115 518q16 80 69 82q14 0 35 -6q84 -27 86 -88q0 -18 -10 -53q-43 -135 -43 -191q0 -23 8 -22q10 0 39 41q135 190 248 328q57 72 115 73q31 0 59 -16q68 -39 70 -127q0 -23 -7 -49q-94 -387 -94 -502q0 -104 15 -119q4 -12 4 -22 q0 -14 -16.5 -25.5t-34.5 -11.5q-41 0 -78 33q-78 66 -82 180q0 156 4 193.5t4 54.5q0 12 -4 12q-10 0 -225 -385q-52 -92 -113 -92q-29 0 -55 12q-111 45 -113 137z" />
<glyph unicode="o" horiz-adv-x="557" d="M0 207q0 98 51 264t119 285q40 71 109 71h2q115 0 131 -102q2 -16 28 -43q86 -82 86 -242q0 -8 -3 -87t-64.5 -216t-161.5 -186q-35 -17 -70 -17q-45 0 -107.5 33t-99.5 125q-20 51 -20 115zM186 174q1 -38 9 -65q63 35 110 131q59 125 60 252q0 76 -29 131 q-43 -37 -82 -138q-68 -176 -68 -311z" />
<glyph unicode="p" horiz-adv-x="806" d="M-61 -502l2 21q55 627 211 1235q18 69 71 69h2q14 0 33 -6q66 -18 66 -78q0 -31 -21.5 -94t-21.5 -129q0 -16 8 -16q20 0 123 141q76 111 163 113q45 0 95 -25q74 -37 75 -121q0 -31 -6 -65q-37 -236 -198 -406q-65 -67 -146 -67h-2q-39 0 -78 14q-18 8 -32 8l-21 -2 q-20 -4 -96 -309q-35 -145 -35 -248l2 -72q0 -27 -6.5 -53t-65.5 -26q-121 0 -122 116zM301 197q0 -6 1 -16.5t34 -12.5q4 4 10 6q63 23 174 229q57 109 58 160q0 35 -21 35q-53 0 -182 -244q-74 -139 -74 -157z" />
<glyph unicode="q" horiz-adv-x="698" d="M-102 63q0 41 12 76q186 512 485 809q47 47 111 49l45 4q37 0 86 -36q35 -29 37 -70l-4 -27q-20 -121 -133 -172q-16 -8 -27 -8q-18 0 -18 35q0 29 9 57.5t9 38.5q0 6 -4 6q-27 -2 -162 -215q-227 -358 -227 -463q90 57 313 361q72 96 154 96q37 0 67 -14q47 -25 47 -68 q0 -39 -18 -82q-41 -94 -119 -377q-68 -250 -104 -495q-16 -106 -17 -184q0 -109 29 -168q8 -16 8 -31q0 -33 -59 -33q-137 0 -162 148q-14 82 -14 137q0 205 82 534q16 63 16 92q0 23 -8 23q-20 -2 -82 -78q-80 -98 -156 -98q-68 0 -132 39t-64 114z" />
<glyph unicode="r" horiz-adv-x="468" d="M0 39q47 418 90 690q10 57 62 57q124 0 124 -110q0 -22 -10 -58q-12 -43 -12 -77q0 -31 8 -31q6 0 14 16q45 98 168 152q39 18 78 18q35 0 58 -37q12 -18 12 -32q0 -25 -47 -47q-12 -6 -21 -13q-244 -186 -319 -532q-23 -96 -80 -96q-59 0 -102 38q-23 23 -23 62z" />
<glyph unicode="s" horiz-adv-x="495" d="M0 502q0 78 49 233q84 272 209 273q18 0 37 -7q84 -27 84 -61q0 -31 -31 -70q-153 -189 -153 -386q0 -72 104 -85q193 -20 197 -116v-58q0 -53 -99 -153q-113 -113 -215 -129q-78 0 -78 51q0 27 76 100q102 98 103 152q0 10 -10.5 32.5t-108.5 38.5q-164 25 -164 185z " />
<glyph unicode="t" horiz-adv-x="405" d="M-172 1147q0 51 82 61l264 35q47 6 64 64l139 487q23 80 80 80q18 0 43 -8q80 -31 80 -90q0 -20 -11 -50q-39 -104 -100 -296q-37 -113 -37 -130q2 -34 54 -34h3l113 2q39 0 90 -6.5t119 -49.5t70 -92q0 -20 -11 -43q-16 -31 -41 -30q-25 0 -55 16q-53 27 -174 27 q-207 0 -221 -33q-8 -16 -14 -41q-94 -424 -95 -869q0 -160 19 -262q12 -68 57 -133q10 -14 10 -24q0 -12 -10 -27q-20 -25 -65 -27q-16 0 -33 9q-88 39 -117 114q-49 131 -49 412q0 322 86 786q4 29 4 43q0 18 -16 19q-33 0 -76 -19q-53 -22 -142 -22h-8q-39 0 -84 74 q-18 31 -18 57z" />
<glyph unicode="u" horiz-adv-x="802" d="M0 117q0 68 22.5 233.5t79.5 304.5q47 119 123 123q86 -14 88 -76q0 -23 -4 -38q-18 -63 -57 -228q-51 -207 -51 -272q0 -25 8 -25q41 2 199 258q133 217 186 330q29 61 88 64q27 0 55 -13q63 -25 66 -80q0 -27 -8 -51q-137 -395 -138 -598q0 -53 9.5 -79.5t9.5 -47.5 q0 -4 -1 -17.5t-50 -19.5h-29q-59 0 -90 23q-53 39 -57 164q-2 35 -11 49q-76 -86 -90 -105q-59 -68 -137 -71l-45 -2q-45 0 -105.5 45t-60.5 129z" />
<glyph unicode="v" horiz-adv-x="561" d="M0 166v104q0 139 39 338q10 47 14 94q6 55 25.5 93.5t75.5 38.5q109 0 108 -86l-2 -15q-49 -240 -49 -352q0 -31 8 -31q10 0 33 47q117 248 174 355q31 57 82 57q35 0 63 -16q43 -23 43 -58t-155 -350q-166 -332 -197 -363.5t-74 -31.5l-41 2q-143 29 -147 174z" />
<glyph unicode="w" horiz-adv-x="1013" d="M0 115q0 18 2 32q49 279 137 543q27 80 80 82q25 0 47 -8q63 -23 66 -80q0 -25 -8 -51q-123 -367 -123 -438q0 -12 6 -13q29 0 289 484q45 82 96 82q18 0 41 -9q61 -27 63 -77q0 -37 -14 -77t-43 -208q-14 -90 -14 -152q0 -53 10 -65q27 0 75 67.5t97 182.5 q55 131 55 245q0 113 -59 187q-25 33 -25 55q0 14 14.5 30.5t32.5 16.5q23 0 54 -26q127 -111 133 -259l2 -92q0 -82 -64 -231q-143 -344 -291 -344q-33 0 -59 8q-152 45 -156 168q0 29 1 37t1 12l-2 2q-2 0 -149 -205q-54 -73 -115 -75q-37 0 -76 16q-104 43 -104 160z" />
<glyph unicode="x" horiz-adv-x="616" d="M0 -31q0 117 115 375q61 139 61 221l-2 164q0 133 16 270q6 49 21.5 77t64.5 28q119 0 121 -113q-12 -172 -12 -235q0 -39 4 -39q10 0 35 28q119 154 287 236q27 14 55 14q23 0 37 -26q6 -12 6 -21q0 -14 -45 -53q-205 -172 -344 -399q-37 -59 -37 -129q0 -61 39 -168 t162 -160q35 -14 34 -47q0 -45 -43 -51q-29 -4 -55 -4q-154 0 -248 151q-29 47 -43 47q-27 0 -47 -119q-22 -137 -67 -137h-4q-111 0 -111 90z" />
<glyph unicode="y" horiz-adv-x="706" d="M0 193q0 528 94 534l25 -2q104 -4 104 -115q-8 -168 -8 -258q0 -108 16 -108q26 0 119 186q55 109 139 260q37 63 99 64q25 0 49 -9q70 -27 70 -96q0 -20 -5 -37q-33 -106 -77 -323q-61 -299 -62 -506q0 -172 62 -246q20 -25 22 -41q0 -14 -14 -28q-27 -29 -60 -31 q-27 0 -49 10q-88 37 -122.5 109.5t-34.5 232.5q0 84 10 231q0 90 -4 91q-4 0 -23 -27q-70 -90 -162 -90q-29 0 -57 10q-131 51 -131 189z" />
<glyph unicode="z" horiz-adv-x="690" d="M-66 -102q0 35 56 86q70 61 197.5 202.5t222.5 284.5q69 103 69 164t-61 61q-72 0 -236 -65q-29 -12 -55 -13q-27 0 -65.5 17.5t-53.5 56.5q-4 10 -4 19q0 27 45 43q210 75 361 75h4q168 0 225 -102q23 -41 23 -90q0 -127 -177 -354l-71 -90q-18 -25 -19 -41 q0 -18 15 -19q10 0 26 4q47 14 88 15q92 0 170 -66q53 -45 54 -109q0 -51 -26 -81.5t-63 -30.5q-63 0 -77 37q-10 29 -10.5 57.5t-3.5 46t-27 19.5q-14 0 -41 -9q-170 -55 -324 -145q-76 -43 -135 -43q-106 0 -107 70z" />
<glyph unicode="{" horiz-adv-x="604" d="M4 297q0 45 31 129q57 158 108.5 317.5t110.5 319.5q172 471 313 479q47 0 86 -33q55 -35 60 -84q-8 -86 -86 -92q-45 -10 -66.5 -39.5t-40.5 -83.5q-59 -117 -184 -467q-100 -281 -100 -370q0 -27 12 -33q84 -27 86 -80q0 -55 -19 -110q-63 -223 -63 -381q0 -25 2 -48 q16 -248 121 -247q31 0 76 22q20 14 43 15q35 0 43 -48q0 -27 -39 -53q-55 -39 -121 -43h-25q-184 0 -260 182q-43 133 -43 246q0 125 43 307q14 72 14 91l-7 21t-44 28q-49 6 -51 55z" />
<glyph unicode="|" horiz-adv-x="278" d="M-51 -8q47 588 178 1161q16 78 18 109q4 80 52 84q14 0 34 -5q98 -20 105 -106q0 -27 -6 -57q-205 -803 -205 -1186l4 -109q0 -94 -49 -96h-6q-49 0 -87 60.5t-38 144.5z" />
<glyph unicode="}" horiz-adv-x="743" d="M59 -627q0 20 33 37q92 43 152 131q41 59 41 129q0 27 -6 47q-23 63 -27 123q0 82 24 140q59 139 60 184q-6 82 -37 160.5t-35 142.5q0 61 21 111q39 92 88 192q53 109 100 219q45 102 80 248q6 27 6 59q0 29 -23.5 49.5t-50.5 20.5q-29 -2 -61 -18q-72 -37 -133 -39 q-76 0 -98 69q0 47 83 74q47 14 99 18q74 0 153.5 -11t155.5 -95q51 -55 51 -143q0 -111 -98 -312q-172 -350 -172 -503q0 -104 86 -136q51 -18 53 -51q0 -23 -22 -47q-123 -131 -123 -311q0 -68 24 -199q0 -84 -49 -160.5t-145 -130.5q-68 -39 -142 -43q-88 0 -88 45z" />
<glyph unicode="&#xad;" d="M70 430q0 33 24 43q14 4 53 4q270 51 418 51q131 0 291 -49q72 -23 72 -94q0 -53 -37 -53q-12 0 -20.5 2t-14.5 2q-178 37 -293 37q-129 0 -330 -51q-20 -7 -40 -7q-57 0 -99 58q-25 33 -24 57z" />
<glyph unicode="&#xd7;" horiz-adv-x="667" d="M-80 29q0 27 29 61q55 68 102 139q29 43 60 84q25 31 24 68q0 25 -12 51q-121 281 -121 318q0 51 49 51q23 0 51 -17q94 -70 129 -184q0 -12 13.5 -34.5t29.5 -24.5q12 0 19.5 8t14.5 20.5t95 120.5q104 129 129 158t54 29q6 0 25.5 -4.5t46 -35t30.5 -63.5l-51 -67 q-53 -68 -107 -140q-66 -90 -139 -172q-35 -35 -35 -69q0 -35 31 -68q74 -94 172 -160q39 -25 39 -51q0 -14 -10 -29q-14 -23 -35 -22q-51 0 -244 162q-29 25 -55 24q-59 0 -135 -157q-39 -88 -88 -88q-27 0 -58 20q-53 35 -53 72z" />
<glyph unicode="&#xf7;" horiz-adv-x="1085" d="M-33 358q0 41 62 52q385 133 780 145q80 0 160 -11.5t86 -99.5q-4 -41 -41 -41l-103 3q-401 0 -764 -136q-30 -14 -59 -14q-57 0 -88 45q-33 33 -33 57zM307 -51q0 78 94 162q31 27 53.5 54.5t47.5 27.5q35 0 84 -52q18 -18 18 -43l-2 -12q-88 -135 -207 -199l-28 -2 q-47 0 -53.5 23.5t-6.5 40.5zM379 659q0 47 139 240q23 29 53 29q18 0 39 -10q70 -37 70 -99q-6 -29 -51 -78t-101.5 -89t-93.5 -44q-55 10 -55 51z" />
<glyph unicode="&#x2000;" horiz-adv-x="937" />
<glyph unicode="&#x2001;" horiz-adv-x="1874" />
<glyph unicode="&#x2002;" horiz-adv-x="937" />
<glyph unicode="&#x2003;" horiz-adv-x="1874" />
<glyph unicode="&#x2004;" horiz-adv-x="624" />
<glyph unicode="&#x2005;" horiz-adv-x="468" />
<glyph unicode="&#x2006;" horiz-adv-x="312" />
<glyph unicode="&#x2007;" horiz-adv-x="312" />
<glyph unicode="&#x2008;" horiz-adv-x="234" />
<glyph unicode="&#x2009;" horiz-adv-x="374" />
<glyph unicode="&#x200a;" horiz-adv-x="104" />
<glyph unicode="&#x2010;" d="M70 430q0 33 24 43q14 4 53 4q270 51 418 51q131 0 291 -49q72 -23 72 -94q0 -53 -37 -53q-12 0 -20.5 2t-14.5 2q-178 37 -293 37q-129 0 -330 -51q-20 -7 -40 -7q-57 0 -99 58q-25 33 -24 57z" />
<glyph unicode="&#x2011;" d="M70 430q0 33 24 43q14 4 53 4q270 51 418 51q131 0 291 -49q72 -23 72 -94q0 -53 -37 -53q-12 0 -20.5 2t-14.5 2q-178 37 -293 37q-129 0 -330 -51q-20 -7 -40 -7q-57 0 -99 58q-25 33 -24 57z" />
<glyph unicode="&#x2012;" d="M70 430q0 33 24 43q14 4 53 4q270 51 418 51q131 0 291 -49q72 -23 72 -94q0 -53 -37 -53q-12 0 -20.5 2t-14.5 2q-178 37 -293 37q-129 0 -330 -51q-20 -7 -40 -7q-57 0 -99 58q-25 33 -24 57z" />
<glyph unicode="&#x2013;" horiz-adv-x="1166" d="M69 430q0 33 29 43q16 4 63 4q322 51 499 51q156 0 347 -49q86 -23 86 -94q0 -53 -44 -53q-14 0 -24.5 2t-17.5 2q-212 37 -350 37q-154 0 -393 -51q-24 -7 -48 -7q-68 0 -118 58q-30 33 -29 57z" />
<glyph unicode="&#x2014;" horiz-adv-x="2190" d="M69 430q0 33 57 43q34 4 127 4q644 51 998 51q312 0 694 -49q172 -23 172 -94q0 -53 -88 -53q-29 0 -49.5 2t-34.5 2q-425 37 -699 37q-308 0 -788 -51q-48 -7 -95 -7q-136 0 -237 58q-59 33 -57 57z" />
<glyph unicode="&#x2018;" horiz-adv-x="321" d="M4 1083q6 59 19 117q25 137 114 137q20 0 47 -6q66 -23 66 -67q0 -35 -17 -76q-31 -84 -30 -141q0 -49 14 -99q6 -18 6 -33q0 -32 -39 -32q-25 0 -45 8q-135 45 -135 192z" />
<glyph unicode="&#x2019;" horiz-adv-x="440" d="M29 827q0 12 14 35q74 98 115 268q0 18 -9.5 40t-9.5 40q0 27 43 27q145 0 162 -147q0 -86 -72 -179q-96 -125 -198 -125q-23 0 -39 21q-6 10 -6 20z" />
<glyph unicode="&#x201a;" horiz-adv-x="415" d="M29 -537q0 12 14 35q74 98 115 269q0 18 -9.5 39.5t-9.5 39.5q0 27 43 27q145 0 162 -147q0 -86 -72 -179q-96 -125 -198 -125q-23 0 -39 21q-6 10 -6 20z" />
<glyph unicode="&#x201c;" horiz-adv-x="641" d="M-6 981q0 86 52 185.5t122 170.5q29 29 63 29q35 0 71 -28.5t36 -55.5q-4 -43 -72 -143q-92 -127 -92 -221q0 -43 14 -91l2 -12q1 -27 -36 -27q-16 0 -27 5q-133 59 -133 188zM295 1028q0 66 50 132.5t142 107.5q20 8 39 8q45 0 80 -47q10 -18 10 -33q0 -37 -69.5 -117 t-69.5 -139q0 -20 6 -49q0 -39 -43 -39q-14 0 -26 6q-119 70 -119 170z" />
<glyph unicode="&#x201d;" horiz-adv-x="589" d="M29 928q0 23 14 55q43 86 43 143q0 33 -6 66q0 45 43 45q18 0 41 -10q106 -51 117 -144q-15 -229 -152 -229l-18 2q-82 12 -82 72zM281 918q0 23 36 110q43 90 43 156q0 57 -43 116l-2 7q0 6 9 20q14 29 55 29q18 0 37 -10q129 -55 135 -224q-12 -117 -80 -243 q-22 -43 -63 -43q-43 0 -85 20.5t-42 61.5z" />
<glyph unicode="&#x201e;" horiz-adv-x="659" d="M16 -473q0 10 45 98q70 135 70 217q0 31 -12 92q0 31 37 33q20 0 37 -6q119 -39 126 -147q-4 -104 -69 -201q-88 -127 -178 -127q-29 0 -47 20q-8 10 -9 21zM270 -475q0 12 25 47q74 119 106 254q0 18 -9 39.5t-11 40.5q0 27 43 26q143 0 164 -147q0 -86 -73 -178 t-157 -117q0 -8 -43 -8q-20 0 -36 20q-8 12 -9 23z" />
<glyph unicode="&#x202f;" horiz-adv-x="374" />
<glyph unicode="&#x205f;" horiz-adv-x="468" />
<glyph unicode="&#x25fc;" horiz-adv-x="1105" d="M0 0v1106h1106v-1106h-1106z" />
</font>
</defs>
</svg>
